<svg xmlns="http://www.w3.org/2000/svg" width="430" height="932" viewBox="0 0 430 932">
  <defs>
    <linearGradient id="bg" x1="0" y1="0" x2="1" y2="1"><stop stop-color="#fff8f0"/><stop offset="1" stop-color="#eee3f5"/></linearGradient>
    <filter id="shadow"><feDropShadow dx="0" dy="8" stdDeviation="10" flood-color="#7d5a50" flood-opacity=".14"/></filter>
  </defs>
  <rect width="430" height="932" fill="url(#bg)"/>
  <circle cx="382" cy="100" r="112" fill="#e3d1f3" opacity=".55"/><circle cx="35" cy="710" r="150" fill="#cde4dc" opacity=".48"/>
  <text x="215" y="50" text-anchor="middle" font-family="Arial, sans-serif" font-size="13" font-weight="700" fill="#7d5a50">9:41</text>
  <text x="28" y="103" font-family="Arial, sans-serif" font-size="29" font-weight="700" fill="#5c4033">‹</text>
  <text x="215" y="104" text-anchor="middle" font-family="Arial, sans-serif" font-size="18" font-weight="700" fill="#5c4033">Accounts verknüpfen</text>
  <rect x="20" y="142" width="390" height="238" rx="25" fill="#fff" fill-opacity=".73" stroke="#fff" filter="url(#shadow)"/>
  <text x="215" y="182" text-anchor="middle" font-family="Arial, sans-serif" font-size="18" font-weight="700" fill="#5c4033">Einladung erstellt</text>
  <text x="215" y="208" text-anchor="middle" font-family="Arial, sans-serif" font-size="13" fill="#7d5a50">Teile den Code mit deiner Partnerperson.</text>
  <rect x="50" y="234" width="330" height="74" rx="18" fill="#e1d0f2" stroke="#fff" stroke-width="2"/>
  <text x="215" y="280" text-anchor="middle" font-family="Arial, sans-serif" font-size="24" font-weight="700" letter-spacing="2" fill="#6b3e94">LOTTI-4K8P</text>
  <rect x="92" y="326" width="246" height="38" rx="19" fill="#8e4ec6"/>
  <text x="215" y="351" text-anchor="middle" font-family="Arial, sans-serif" font-size="13" font-weight="700" fill="white">Einladung teilen  ↗</text>
  <rect x="20" y="405" width="390" height="180" rx="25" fill="#fff" fill-opacity=".72" stroke="#fff" filter="url(#shadow)"/>
  <text x="215" y="445" text-anchor="middle" font-family="Arial, sans-serif" font-size="18" font-weight="700" fill="#5c4033">Verknüpfte Accounts</text>
  <rect x="43" y="470" width="344" height="86" rx="19" fill="#fff" fill-opacity=".78"/>
  <circle cx="78" cy="513" r="21" fill="#e1d0f2"/><path d="M78 501a8 8 0 1 0 0 16a8 8 0 0 0 0-16m-14 29c2-8 9-11 14-11s12 3 14 11" fill="none" stroke="#8e4ec6" stroke-width="3" stroke-linecap="round"/>
  <text x="113" y="507" font-family="Arial, sans-serif" font-size="16" font-weight="700" fill="#5c4033">Jonas Weber</text>
  <text x="113" y="529" font-family="Arial, sans-serif" font-size="13" fill="#7d5a50">Papa · verbunden</text>
  <circle cx="356" cy="513" r="12" fill="#a8c4c1"/><path d="m350 513 4 4 8-9" fill="none" stroke="white" stroke-width="2.5" stroke-linecap="round" stroke-linejoin="round"/>
  <rect x="20" y="616" width="390" height="130" rx="25" fill="#e0efeb" fill-opacity=".88" stroke="#fff" filter="url(#shadow)"/>
  <circle cx="59" cy="659" r="19" fill="#a8c4c1"/><path d="M50 659l6 6 12-14" fill="none" stroke="white" stroke-width="3" stroke-linecap="round" stroke-linejoin="round"/>
  <text x="91" y="653" font-family="Arial, sans-serif" font-size="16" font-weight="700" fill="#5c4033">Ihr seid verbunden</text>
  <text x="91" y="678" font-family="Arial, sans-serif" font-size="13" fill="#7d5a50">Ab jetzt teilt ihr dasselbe Baby-Profil.</text>
  <rect x="20" y="814" width="390" height="70" rx="22" fill="#fff" fill-opacity=".62"/>
  <text x="215" y="856" text-anchor="middle" font-family="Arial, sans-serif" font-size="14" font-weight="700" fill="#8e4ec6">Lotti Baby  •  Gemeinsam im Blick</text>
</svg>
