<svg xmlns="http://www.w3.org/2000/svg" width="430" height="932" viewBox="0 0 430 932">
  <defs><linearGradient id="bg" x1="0" y1="0" x2="1" y2="1"><stop stop-color="#fff8f0"/><stop offset="1" stop-color="#dff0ed"/></linearGradient><filter id="shadow"><feDropShadow dx="0" dy="8" stdDeviation="10" flood-color="#7d5a50" flood-opacity=".14"/></filter></defs>
  <rect width="430" height="932" fill="url(#bg)"/><circle cx="389" cy="196" r="125" fill="#cce4df" opacity=".58"/>
  <text x="215" y="50" text-anchor="middle" font-family="Arial, sans-serif" font-size="13" font-weight="700" fill="#7d5a50">03:17</text>
  <text x="28" y="103" font-family="Arial, sans-serif" font-size="29" font-weight="700" fill="#5c4033">‹</text><text x="215" y="104" text-anchor="middle" font-family="Arial, sans-serif" font-size="18" font-weight="700" fill="#5c4033">Emilias Schlaf</text>
  <rect x="20" y="142" width="390" height="150" rx="25" fill="#fff" fill-opacity=".8" stroke="#fff" filter="url(#shadow)"/>
  <text x="46" y="181" font-family="Arial, sans-serif" font-size="13" font-weight="700" fill="#7d5a50">SCHLAF LÄUFT</text>
  <text x="46" y="234" font-family="Arial, sans-serif" font-size="43" font-weight="700" fill="#5c4033">01:42:18</text>
  <circle cx="351" cy="211" r="34" fill="#8e4ec6"/><path d="M342 211h18m-9-9v18" stroke="white" stroke-width="3" stroke-linecap="round"/>
  <text x="46" y="264" font-family="Arial, sans-serif" font-size="13" fill="#7d5a50">Gestartet von Jonas · 01:35 Uhr</text>
  <rect x="20" y="318" width="390" height="118" rx="25" fill="#e0efeb" fill-opacity=".88" stroke="#fff" filter="url(#shadow)"/>
  <circle cx="59" cy="359" r="19" fill="#a8c4c1"/><path d="M50 359l6 6 12-14" fill="none" stroke="white" stroke-width="3" stroke-linecap="round" stroke-linejoin="round"/>
  <text x="92" y="353" font-family="Arial, sans-serif" font-size="16" font-weight="700" fill="#5c4033">Jonas hat den Schlaf gestartet</text>
  <text x="92" y="378" font-family="Arial, sans-serif" font-size="13" fill="#7d5a50">Du siehst alles direkt auf deinem Handy.</text>
  <text x="20" y="480" font-family="Arial, sans-serif" font-size="18" font-weight="700" fill="#5c4033">Heute Nacht</text>
  <rect x="20" y="502" width="390" height="210" rx="25" fill="#fff" fill-opacity=".74" stroke="#fff" filter="url(#shadow)"/>
  <text x="48" y="546" font-family="Arial, sans-serif" font-size="14" font-weight="700" fill="#5c4033">Schlafverlauf</text>
  <line x1="54" y1="630" x2="372" y2="630" stroke="#e4d8cc" stroke-width="8" stroke-linecap="round"/>
  <line x1="54" y1="630" x2="274" y2="630" stroke="#8e4ec6" stroke-width="8" stroke-linecap="round"/>
  <circle cx="274" cy="630" r="12" fill="#8e4ec6" stroke="white" stroke-width="4"/>
  <text x="50" y="675" font-family="Arial, sans-serif" font-size="12" fill="#7d5a50">01:35</text><text x="335" y="675" font-family="Arial, sans-serif" font-size="12" fill="#7d5a50">jetzt</text>
  <rect x="20" y="766" width="390" height="78" rx="22" fill="#8e4ec6"/>
  <text x="215" y="814" text-anchor="middle" font-family="Arial, sans-serif" font-size="15" font-weight="700" fill="white">Schlaf gemeinsam im Blick</text>
</svg>
